<?xml version="1.0" encoding="utf-8"?>
<!-- Generator: Adobe Illustrator 27.5.0, SVG Export Plug-In . SVG Version: 6.00 Build 0)  -->
<svg version="1.1" xmlns="http://www.w3.org/2000/svg" xmlns:xlink="http://www.w3.org/1999/xlink" x="0px" y="0px"
	 viewBox="0 0 3710 3710" style="enable-background:new 0 0 3710 3710;" xml:space="preserve">
<g id="Background">
	<g>
		<g>
			<rect style="fill:#FFFFFF;" width="3710" height="3710"/>
		</g>
	</g>
</g>
<g id="Illustration">
	<g>
		<path style="fill:#F4F7FA;" d="M2988.7,2911.077c-75.481,77.804-143.019,123.539-194.729,158.066
			c-504.312,336.733-1080.795,239.679-1259.029,206.506c-287.559-53.521-530.299-91.278-738.856-279.7
			c-473.904-428.154-450.854-1321.314-88.734-1874.587c42.937-65.602,404.509-601.565,982.24-677.086
			c14.13-1.847,24.674-2.899,33.908-3.877c89.374-9.463,643.204-59.405,1094.798,318.941
			c64.644,54.158,168.674,151.846,265.143,300.835C3436.179,1604.948,3437.296,2448.681,2988.7,2911.077z"/>
		<path style="fill:#D8DEE8;" d="M1817.707,3084.882c-411.046-4.875-520.062-43.292-916.37-27.769
			c-151.482,5.934-447.536,17.531-449.856,55.537c-2.972,48.699,477.266,125.028,838.619,161.06
			c983.724,98.091,1921.838-19.155,1921.603-94.414c-0.164-52.451-456.129-93.642-655.344-105.521
			C2236.71,3054.714,2217.595,3089.625,1817.707,3084.882z"/>
		<g>
			<g>
				<g>
					<defs>
						<path id="SVGID_1_" d="M2409.657,2674.998c-37.51-82.814-80.436-210.798-62.671-359.998
							c20.398-171.323,102.175-214.04,159.451-401.025c81.76-266.915-62.199-438.187,42.656-528.443
							c51.134-44.014,138.031-53.486,195.754-21.146c164.688,92.268,174.305,571.053-48.116,782.46
							c-100.594,95.613-197.388,96.083-267.932,213.331C2366.463,2463.781,2385.883,2589.415,2409.657,2674.998z"/>
					</defs>
					
						<linearGradient id="SVGID_00000178184979918423460580000016616504025952951446_" gradientUnits="userSpaceOnUse" x1="2788.1492" y1="1528.0148" x2="2388.551" y2="2171.4844">
						<stop  offset="0.0036" style="stop-color:#E38DDD"/>
						<stop  offset="1" style="stop-color:#9571F6"/>
					</linearGradient>
					
						<use xlink:href="#SVGID_1_"  style="overflow:visible;fill:url(#SVGID_00000178184979918423460580000016616504025952951446_);"/>
					<clipPath id="SVGID_00000182513805631389244530000017059404256341036424_">
						<use xlink:href="#SVGID_1_"  style="overflow:visible;"/>
					</clipPath>
					<g style="opacity:0.5;clip-path:url(#SVGID_00000182513805631389244530000017059404256341036424_);">
						<path style="fill:#FFFFFF;" d="M2369.34,2460.846l-3.515-0.499c5.288-37.279,13.83-74.29,25.386-110.001
							c26.577-82.122,60.551-129.309,103.562-189.052c27.92-38.779,59.564-82.732,94.901-144.62
							c66.089-115.752,86.113-156.041,101.08-218.944c29.641-124.57,11.405-231.38-2.103-283.961
							c-19.161-74.597-52.423-143.95-98.858-206.131l2.844-2.125c46.714,62.556,80.175,132.326,99.453,207.372
							c13.589,52.9,31.934,160.354,2.116,285.667c-15.069,63.336-35.163,103.781-101.451,219.883
							c-35.428,62.05-67.13,106.084-95.102,144.934c-42.831,59.49-76.66,106.478-103.067,188.069
							C2383.093,2386.956,2374.598,2423.766,2369.34,2460.846z"/>
						<path style="fill:#FFFFFF;" d="M2705.201,1711.71l-0.367-2.898c-21.339-168.568-230.503-204.417-232.613-204.759l0.569-3.505
							c0.534,0.087,54.02,9.008,109.445,38.897c50.713,27.346,113.38,78.254,125.722,165.945
							c9.393-7.067,44.858-35.501,74.543-82.577c31.674-50.227,63.067-132.605,32.749-239.806l3.415-0.967
							c30.693,108.521-1.134,191.927-33.236,242.787c-34.766,55.077-77.396,84.926-77.823,85.221L2705.201,1711.71z"/>
						<path style="fill:#FFFFFF;" d="M2691.742,1998.16c-47.57,0-81.972-11.1-82.685-11.337l-1.414-0.471l0.22-1.473
							c25.472-170.531-94.144-243.565-95.355-244.283l1.81-3.054c1.229,0.728,122.166,74.57,97.279,246.352
							c15.406,4.612,152.301,41.814,253.483-56.223l2.472,2.548C2811.032,1984.98,2743.572,1998.16,2691.742,1998.16z"/>
						<path style="fill:#FFFFFF;" d="M2609.275,2175.479c-13.991,0-26.31-1.146-36.848-2.822
							c-42.996-6.833-65.837-23.242-66.789-23.937l-1.026-0.75l0.38-1.213c28.84-92.124-40.438-230.392-41.141-231.779l3.165-1.605
							c0.707,1.392,70.006,139.684,41.753,233.179c10.564,6.883,100.867,60.346,249.861-13.19l1.57,3.182
							C2698.919,2166.792,2647.782,2175.479,2609.275,2175.479z"/>
					</g>
				</g>
			</g>
			<g>
				<g>
					<defs>
						<path id="SVGID_00000098201366658255544300000013698708553811455930_" d="M2327.013,2644.361
							c-19.474-69.802-38.288-180.074,8.783-285.634c82.12-184.157,272.34-146.695,428.282-351.377
							c125.774-165.084,68.377-276.534,214.955-393.09c24.535-19.51,153.775-126.244,263.281-82.31
							c61.708,24.756,89.776,86.292,95.045,97.844c79.637,174.594-74.03,478.186-300.383,633.997
							c-130.049,89.519-177.264,70.01-410.925,183.322C2488.75,2513.697,2388.638,2591.103,2327.013,2644.361z"/>
					</defs>
					
						<linearGradient id="SVGID_00000010280659277811082850000000063838160847034518_" gradientUnits="userSpaceOnUse" x1="2995.9829" y1="1634.0649" x2="2648.3589" y2="2671.2405">
						<stop  offset="0" style="stop-color:#AA80F9"/>
						<stop  offset="0.9964" style="stop-color:#6165D7"/>
					</linearGradient>
					
						<use xlink:href="#SVGID_00000098201366658255544300000013698708553811455930_"  style="overflow:visible;fill:url(#SVGID_00000010280659277811082850000000063838160847034518_);"/>
					<clipPath id="SVGID_00000039130087527667452210000003421768520945404300_">
						<use xlink:href="#SVGID_00000098201366658255544300000013698708553811455930_"  style="overflow:visible;"/>
					</clipPath>
					<g style="opacity:0.7;clip-path:url(#SVGID_00000039130087527667452210000003421768520945404300_);">
						<path style="fill:#FFFFFF;" d="M2315.996,2732.154l-3.533-0.343c16.926-173.875,71.677-295.42,162.73-361.262
							c44.594-32.244,81.958-40.635,121.517-49.52c42.441-9.531,86.328-19.387,141.109-61.213
							c53.224-40.639,70.053-76.045,91.358-120.869c19.198-40.394,43.091-90.665,101.396-160.506
							c51.103-61.216,89.866-91.476,124.067-118.174c36.989-28.873,66.205-51.68,97.3-103.129
							c50.806-84.065,70.95-186.979,59.876-305.882l3.536-0.329c11.145,119.677-9.167,223.32-60.376,308.049
							c-31.433,52.007-60.876,74.991-98.153,104.091c-34.061,26.589-72.667,56.724-123.526,117.649
							c-58.015,69.496-81.802,119.543-100.916,159.755c-21.51,45.26-38.501,81.007-92.41,122.167
							c-55.396,42.297-99.669,52.24-142.485,61.854c-39.191,8.802-76.211,17.116-120.214,48.934
							C2387.08,2438.644,2332.819,2559.338,2315.996,2732.154z"/>
						<path style="fill:#FFFFFF;" d="M3038.635,1875.289l0.494-2.323c0.524-2.453,51.115-246.297-46.145-334.154l2.378-2.635
							c93.61,84.558,52.694,309.766,47.709,335.201c129.118-10.681,219.58-69.824,272.844-117.718
							c58.103-52.246,85.713-102.755,85.985-103.259l3.123,1.685c-0.274,0.51-28.109,51.467-86.63,104.119
							c-54.006,48.591-145.969,108.661-277.389,118.9L3038.635,1875.289z"/>
						<path style="fill:#FFFFFF;" d="M3024.341,2077.006c-87.519,0-148.444-19.3-149.066-19.5l-1.452-0.468l0.244-1.506
							c10.75-66.08,2.34-144.066-6.607-197.851c-9.705-58.339-22.12-101.581-22.245-102.011l3.411-0.984
							c0.496,1.719,49.262,172.712,29.19,299.885c10.001,2.978,70.586,19.912,153.876,18.841
							c83.777-1.043,208.319-20.976,325.864-110.015l2.142,2.829c-118.359,89.658-243.751,109.707-328.098,110.738
							C3029.163,2076.992,3026.738,2077.006,3024.341,2077.006z"/>
						<path style="fill:#FFFFFF;" d="M2922.699,2376.946c-76.915,0-139.239-11.13-182.703-22.439
							c-67.371-17.529-105.311-39.301-105.687-39.517l-1.617-0.939l1.021-1.567c80.841-123.897,24.094-308.057,23.512-309.903
							l3.383-1.068c0.586,1.853,57.354,186.015-22.885,311.306c16.933,9.117,163.522,83.314,391.267,53.593l0.461,3.518
							C2991.406,2374.896,2955.708,2376.946,2922.699,2376.946z"/>
					</g>
				</g>
			</g>
			<g>
				<defs>
					<path id="SVGID_00000063625081365588025150000003200239326187678380_" d="M2317.976,2584.252
						c36.443-32.705,96.677-80.853,180.353-121.16c148.831-71.693,223.286-47.025,281.706-119.586
						c60.471-75.108,9.287-137.054,82.28-221.521c6.137-7.102,84.739-95.698,166.825-74.806
						c57.425,14.616,85.723,74.969,99.001,103.287c51.532,109.905,47.678,286.319-64.787,385.347
						c-106.626,93.887-257.022,71.002-304.807,63.408c-83.831-13.324-106.576-42.963-191.531-54.039
						C2463.7,2531.712,2375.187,2559.622,2317.976,2584.252z"/>
				</defs>
				
					<linearGradient id="SVGID_00000139979723432538346860000017988552500860234145_" gradientUnits="userSpaceOnUse" x1="3159.5874" y1="2165.1257" x2="2121.5825" y2="3017.7737">
					<stop  offset="0.0036" style="stop-color:#E38DDD"/>
					<stop  offset="1" style="stop-color:#9571F6"/>
				</linearGradient>
				
					<use xlink:href="#SVGID_00000063625081365588025150000003200239326187678380_"  style="overflow:visible;fill:url(#SVGID_00000139979723432538346860000017988552500860234145_);"/>
				<clipPath id="SVGID_00000072978738615235230240000017603067140913593485_">
					<use xlink:href="#SVGID_00000063625081365588025150000003200239326187678380_"  style="overflow:visible;"/>
				</clipPath>
				<g style="opacity:0.7;clip-path:url(#SVGID_00000072978738615235230240000017603067140913593485_);">
					<defs>
						<path id="SVGID_00000098936224772364982030000005940010672567829390_" style="opacity:0.7;" d="M2288.608,2613.807
							l-2.392-2.621c88.722-80.998,179.241-124.452,269.039-129.154c39.276-2.052,67.596,3.654,94.99,9.174
							c34.161,6.886,66.426,13.388,117.921,5.611c92.703-14.007,168.72-54.226,214.051-113.251
							c70.212-91.424,72.632-232.283,6.164-358.858l3.144-1.65c67.108,127.795,64.56,270.152-6.493,362.672
							c-45.892,59.755-122.72,100.454-216.332,114.598c-52.115,7.876-84.678,1.307-119.157-5.64
							c-27.175-5.477-55.283-11.156-94.1-9.108C2466.485,2490.236,2376.71,2533.377,2288.608,2613.807z"/>
					</defs>
					<defs>
						<path id="SVGID_00000155135272987570562920000004987712116943308683_" style="opacity:0.7;" d="M3014.75,2328.414l-0.09-2.728
							c-5.065-153.009-198.408-217.205-200.361-217.836l1.092-3.376c1.964,0.633,195.334,64.804,202.703,218.311
							c19.078-9.984,143.206-79.239,140.135-187.781l3.55-0.101c3.375,119.278-143.092,191.605-144.572,192.322L3014.75,2328.414z"
							/>
					</defs>
					<defs>
						<path id="SVGID_00000101070698752428325140000014467330323325744293_" style="opacity:0.7;" d="M2969.754,2514.039
							c-8.994,0-17.449-0.378-25.323-1.019c-65.29-5.313-105.778-29.362-106.178-29.603l-1.484-0.896l0.86-1.504
							c75.545-132.16-47.537-267.136-48.789-268.485l2.6-2.416c1.265,1.362,125.138,137.212,50.147,271.111
							c7.833,4.302,45.8,23.628,103.328,28.272c59.542,4.817,152.824-5.585,259.132-82.38l2.08,2.877
							C3112.894,2497.346,3029.494,2514.039,2969.754,2514.039z"/>
					</defs>
					<use xlink:href="#SVGID_00000098936224772364982030000005940010672567829390_"  style="overflow:visible;fill:#FFFFFF;"/>
					<use xlink:href="#SVGID_00000155135272987570562920000004987712116943308683_"  style="overflow:visible;fill:#FFFFFF;"/>
					<use xlink:href="#SVGID_00000101070698752428325140000014467330323325744293_"  style="overflow:visible;fill:#FFFFFF;"/>
					<clipPath id="SVGID_00000139979161769023627690000012781733313525212599_">
						<use xlink:href="#SVGID_00000098936224772364982030000005940010672567829390_"  style="overflow:visible;"/>
					</clipPath>
					
						<clipPath id="SVGID_00000054966625822310863000000001981169453131632784_" style="clip-path:url(#SVGID_00000139979161769023627690000012781733313525212599_);">
						<use xlink:href="#SVGID_00000155135272987570562920000004987712116943308683_"  style="overflow:visible;"/>
					</clipPath>
					
						<clipPath id="SVGID_00000110434675817254757080000001293453595078418094_" style="clip-path:url(#SVGID_00000054966625822310863000000001981169453131632784_);">
						<use xlink:href="#SVGID_00000101070698752428325140000014467330323325744293_"  style="overflow:visible;"/>
					</clipPath>
				</g>
			</g>
		</g>
		<g>
			<g>
				<g>
					
						<linearGradient id="SVGID_00000081649112236206774030000011542870831848216502_" gradientUnits="userSpaceOnUse" x1="1218.6808" y1="3052.3071" x2="2870.2588" y2="3052.3071">
						<stop  offset="0" style="stop-color:#FCB148"/>
						<stop  offset="0.0521" style="stop-color:#FDBA46"/>
						<stop  offset="0.1424" style="stop-color:#FFC244"/>
						<stop  offset="0.3183" style="stop-color:#FFC444"/>
						<stop  offset="0.4849" style="stop-color:#FDB946"/>
						<stop  offset="0.7754" style="stop-color:#F99C4D"/>
						<stop  offset="0.8658" style="stop-color:#F8924F"/>
						<stop  offset="1" style="stop-color:#F8924F"/>
					</linearGradient>
					<path style="fill:url(#SVGID_00000081649112236206774030000011542870831848216502_);" d="M1341.408,2926.126v159.212
						c0,51.446,321.371,93.151,717.804,93.151c396.431,0,717.802-41.705,717.802-93.151v-159.212H1341.408z"/>
					
						<linearGradient id="SVGID_00000086678858305525529360000012401792534182753944_" gradientUnits="userSpaceOnUse" x1="2052.0598" y1="2866.2625" x2="2139.1294" y2="3595.1619">
						<stop  offset="0" style="stop-color:#FFDB44"/>
						<stop  offset="1" style="stop-color:#FEEF06"/>
					</linearGradient>
					
						<ellipse style="fill:url(#SVGID_00000086678858305525529360000012401792534182753944_);" cx="2059.211" cy="2926.124" rx="717.803" ry="93.151"/>
					
						<linearGradient id="SVGID_00000109737245973954408510000008865447325935929757_" gradientUnits="userSpaceOnUse" x1="2048.2744" y1="2833.7566" x2="2075.0149" y2="3057.6135">
						<stop  offset="0" style="stop-color:#FFDB44"/>
						<stop  offset="1" style="stop-color:#FEEF06"/>
					</linearGradient>
					<path style="fill:url(#SVGID_00000109737245973954408510000008865447325935929757_);" d="M2059.208,3025.7
						c-351.09,0-718.218-33.535-718.218-98.216c0-3.551,1.267-9.795,4.819-9.795s2.024,4.884,2.024,8.436
						c0,41.019,292.153,86.721,711.375,86.721c419.223,0,711.376-45.702,711.376-86.721c0-3.552,0.606-6.882,4.158-6.882
						s2.695,4.74,2.695,8.292C2777.437,2992.218,2410.299,3025.7,2059.208,3025.7z"/>
					<g>
						<path style="fill:#FCB048;" d="M1991.381,2931.317c7.043-4.876,14.536-9.681,22.558-14.431
							c7.946-4.74,18.299-9.026,30.836-12.854c12.612-3.829,28.383-6.942,47.318-9.358c18.933-2.415,42.608-3.688,70.876-3.826
							c27.741-0.136,53.759,0.745,78.126,2.645c24.292,1.892,45.733,4.732,64.246,8.506c18.438,3.775,33.497,8.444,45.103,13.992
							c11.53,5.564,18.402,11.932,20.618,19.109l80.823,0.818c5.865,0.038,11.054,0.512,15.495,1.435
							c4.516,0.922,6.701,2.084,6.708,3.495l0.033,6.655l-103.905-1.001c-3.644,8.15-12.93,15.606-27.858,22.367
							c-14.853,6.769-33.845,12.623-56.976,17.578l-37.841-5.262c-3.386-0.517-6.171-1.177-8.355-1.979
							c-2.184-0.794-3.241-1.657-3.246-2.602c-0.006-1.28,2.918-2.738,8.775-4.376c5.857-1.645,12.462-3.679,19.818-6.103
							c7.356-2.415,14.56-5.275,21.685-8.575c7.051-3.291,11.769-7.229,14.226-11.813l-245.252-2.431
							c-6.442,4.741-13.711,9.396-21.658,13.973c-8.022,4.577-18.603,8.7-31.815,12.359c-13.214,3.66-29.665,6.628-49.351,8.917
							c-19.762,2.279-44.49,3.492-74.411,3.639c-22.479,0.109-44.361-0.743-65.796-2.55c-21.435-1.816-40.47-4.528-57.102-8.14
							c-16.632-3.619-30.262-8.09-40.963-13.412c-10.627-5.332-16.597-11.449-17.834-18.369l-66.538-0.683
							c-5.865-0.036-11.054-0.495-15.72-1.382c-4.59-0.889-6.927-2.067-6.934-3.544l-0.033-6.655l90.974,0.867
							c4.025-7.011,12.265-13.124,24.871-18.323c12.604-5.207,27.994-9.838,46.167-13.89l30.469,4.183
							c9.254,1.3,13.847,2.82,13.856,4.569c0.003,0.942-1.87,2.11-5.697,3.506c-3.903,1.398-8.406,3.07-13.659,5.007
							c-5.178,1.945-10.279,4.22-15.153,6.836c-4.949,2.61-8.618,5.565-11.082,8.876L1991.381,2931.317z M1766.935,2940.385
							c1.827,4.365,5.904,8.12,12.085,11.281c6.179,3.171,13.861,5.767,23.118,7.805c9.257,2.04,19.64,3.532,31.146,4.484
							c11.584,0.952,23.689,1.403,36.32,1.34c14.734-0.071,27.588-0.708,38.558-1.904c10.896-1.202,20.51-2.825,28.845-4.884
							c8.261-2.059,15.541-4.441,21.693-7.163c6.151-2.722,11.625-5.67,16.57-8.854L1766.935,2940.385z M2300.84,2934.436
							c-1.825-4.422-6.281-8.299-13.213-11.63c-6.934-3.323-15.819-6.125-26.58-8.387c-10.763-2.27-23.325-3.956-37.691-5.059
							c-14.29-1.103-30.081-1.616-47.37-1.531c-15.337,0.074-28.641,0.764-39.686,2.058c-11.046,1.302-20.66,3.038-28.844,5.237
							c-8.109,2.19-15.088,4.743-20.712,7.66c-5.7,2.917-11.022,6.037-15.894,9.358L2300.84,2934.436z"/>
					</g>
					
						<linearGradient id="SVGID_00000127723071033429516890000003531237799808731544_" gradientUnits="userSpaceOnUse" x1="-404.1625" y1="1093.6937" x2="-377.5168" y2="1316.757" gradientTransform="matrix(-1 0 0 -1 1669.249 4127.8389)">
						<stop  offset="0.0036" style="stop-color:#F36F56"/>
						<stop  offset="0.3059" style="stop-color:#F99C4C"/>
						<stop  offset="0.545" style="stop-color:#FDB946"/>
						<stop  offset="0.6817" style="stop-color:#FFC444"/>
						<stop  offset="0.8038" style="stop-color:#FFC244"/>
						<stop  offset="0.8667" style="stop-color:#FEBA46"/>
						<stop  offset="0.916" style="stop-color:#FCAD49"/>
						<stop  offset="0.958" style="stop-color:#F99A4D"/>
						<stop  offset="0.9955" style="stop-color:#F58152"/>
						<stop  offset="1" style="stop-color:#F57E53"/>
					</linearGradient>
					<path style="fill:url(#SVGID_00000127723071033429516890000003531237799808731544_);" d="M2059.308,2843.057
						c-320.055,0-653.304,28.162-706.609,82.683c2.086,1.923,4.025,3.974,5.827,6.133c44.928-37.852,320.1-75.964,700.782-75.964
						c390.455,0,670.038,40.098,703.905,78.884c1.664-2.129,3.443-4.164,5.368-6.083
						C2724.553,2872.261,2385.049,2843.057,2059.308,2843.057z"/>
				</g>
				<g>
					
						<linearGradient id="SVGID_00000028317503563313338220000008417096366721182901_" gradientUnits="userSpaceOnUse" x1="1019.137" y1="2885.0737" x2="2670.7131" y2="2885.0737">
						<stop  offset="0" style="stop-color:#FCB148"/>
						<stop  offset="0.0521" style="stop-color:#FDBA46"/>
						<stop  offset="0.1424" style="stop-color:#FFC244"/>
						<stop  offset="0.3183" style="stop-color:#FFC444"/>
						<stop  offset="0.4849" style="stop-color:#FDB946"/>
						<stop  offset="0.7754" style="stop-color:#F99C4D"/>
						<stop  offset="0.8658" style="stop-color:#F8924F"/>
						<stop  offset="1" style="stop-color:#F8924F"/>
					</linearGradient>
					<path style="fill:url(#SVGID_00000028317503563313338220000008417096366721182901_);" d="M1141.864,2758.892v159.212
						c0,51.448,321.37,93.151,717.802,93.151c396.431,0,717.802-41.704,717.802-93.151v-159.212H1141.864z"/>
					
						<linearGradient id="SVGID_00000083052387140941775640000014784395440311415716_" gradientUnits="userSpaceOnUse" x1="1852.5151" y1="2699.0305" x2="1939.5847" y2="3427.9299">
						<stop  offset="0" style="stop-color:#FFDB44"/>
						<stop  offset="1" style="stop-color:#FEEF06"/>
					</linearGradient>
					
						<ellipse style="fill:url(#SVGID_00000083052387140941775640000014784395440311415716_);" cx="1859.666" cy="2758.892" rx="717.802" ry="93.151"/>
					
						<linearGradient id="SVGID_00000022518544644250246760000011247481994714503097_" gradientUnits="userSpaceOnUse" x1="1848.7289" y1="2666.5249" x2="1875.4692" y2="2890.3804">
						<stop  offset="0" style="stop-color:#FFDB44"/>
						<stop  offset="1" style="stop-color:#FEEF06"/>
					</linearGradient>
					<path style="fill:url(#SVGID_00000022518544644250246760000011247481994714503097_);" d="M1859.663,2858.467
						c-351.089,0-718.218-33.535-718.218-98.214c0-3.552,1.267-9.795,4.819-9.795c3.552,0,2.024,4.882,2.024,8.435
						c0,41.02,292.153,86.722,711.374,86.722c419.223,0,711.376-45.702,711.376-86.722c0-3.552,0.605-6.88,4.158-6.88
						c3.552,0,2.695,4.74,2.695,8.292C2577.892,2824.984,2210.754,2858.467,1859.663,2858.467z"/>
					<g>
						<path style="fill:#FCB048;" d="M1791.836,2764.085c7.043-4.876,14.538-9.681,22.558-14.43
							c7.946-4.742,18.301-9.026,30.836-12.855c12.612-3.828,28.385-6.942,47.318-9.357c18.933-2.415,42.61-3.688,70.876-3.827
							c27.741-0.136,53.759,0.747,78.126,2.645c24.293,1.892,45.734,4.732,64.246,8.507c18.438,3.774,33.497,8.444,45.103,13.991
							c11.53,5.566,18.402,11.932,20.618,19.111l80.823,0.818c5.864,0.036,11.055,0.511,15.495,1.433
							c4.515,0.922,6.701,2.085,6.708,3.497l0.033,6.654l-103.905-1c-3.644,8.15-12.93,15.606-27.858,22.367
							c-14.853,6.769-33.844,12.623-56.975,17.578l-37.841-5.264c-3.386-0.517-6.171-1.175-8.356-1.977
							c-2.184-0.794-3.241-1.659-3.246-2.602c-0.006-1.281,2.92-2.74,8.775-4.376c5.857-1.645,12.463-3.68,19.817-6.103
							c7.356-2.417,14.56-5.275,21.685-8.575c7.051-3.293,11.769-7.229,14.227-11.813l-245.251-2.433
							c-6.443,4.742-13.712,9.398-21.66,13.975c-8.022,4.577-18.601,8.699-31.815,12.359c-13.214,3.658-29.664,6.628-49.351,8.916
							c-19.76,2.279-44.489,3.492-74.411,3.639c-22.478,0.111-44.361-0.742-65.796-2.55c-21.436-1.814-40.468-4.528-57.102-8.139
							c-16.632-3.619-30.262-8.09-40.964-13.414c-10.627-5.33-16.596-11.448-17.832-18.367l-66.539-0.683
							c-5.863-0.036-11.054-0.495-15.72-1.384c-4.59-0.887-6.926-2.067-6.934-3.543l-0.033-6.656l90.974,0.867
							c4.025-7.011,12.265-13.124,24.871-18.323c12.605-5.208,27.994-9.838,46.168-13.89l30.468,4.183
							c9.254,1.3,13.847,2.82,13.856,4.568c0.005,0.944-1.87,2.11-5.697,3.508c-3.902,1.396-8.405,3.068-13.659,5.007
							c-5.178,1.945-10.279,4.218-15.153,6.836c-4.949,2.61-8.618,5.564-11.082,8.876L1791.836,2764.085z M1567.39,2773.154
							c1.827,4.365,5.904,8.12,12.085,11.281c6.181,3.17,13.861,5.767,23.118,7.805c9.257,2.039,19.64,3.53,31.148,4.484
							c11.582,0.952,23.688,1.401,36.318,1.34c14.736-0.073,27.588-0.71,38.558-1.904c10.896-1.202,20.512-2.825,28.847-4.884
							c8.259-2.059,15.539-4.443,21.692-7.165c6.151-2.722,11.625-5.67,16.572-8.854L1567.39,2773.154z M2101.296,2767.202
							c-1.827-4.422-6.282-8.299-13.214-11.628c-6.934-3.323-15.817-6.127-26.58-8.389c-10.761-2.27-23.325-3.956-37.689-5.058
							c-14.29-1.104-30.08-1.616-47.372-1.533c-15.337,0.076-28.64,0.764-39.685,2.058c-11.046,1.302-20.661,3.04-28.844,5.238
							c-8.109,2.189-15.089,4.743-20.713,7.66c-5.7,2.917-11.022,6.035-15.892,9.358L2101.296,2767.202z"/>
					</g>
					
						<linearGradient id="SVGID_00000174569622250765124460000015744494083734428077_" gradientUnits="userSpaceOnUse" x1="-204.6169" y1="1260.9272" x2="-177.9713" y2="1483.9899" gradientTransform="matrix(-1 0 0 -1 1669.249 4127.8389)">
						<stop  offset="0.0036" style="stop-color:#F36F56"/>
						<stop  offset="0.3059" style="stop-color:#F99C4C"/>
						<stop  offset="0.545" style="stop-color:#FDB946"/>
						<stop  offset="0.6817" style="stop-color:#FFC444"/>
						<stop  offset="0.8038" style="stop-color:#FFC244"/>
						<stop  offset="0.8667" style="stop-color:#FEBA46"/>
						<stop  offset="0.916" style="stop-color:#FCAD49"/>
						<stop  offset="0.958" style="stop-color:#F99A4D"/>
						<stop  offset="0.9955" style="stop-color:#F58152"/>
						<stop  offset="1" style="stop-color:#F57E53"/>
					</linearGradient>
					<path style="fill:url(#SVGID_00000174569622250765124460000015744494083734428077_);" d="M1859.762,2675.823
						c-320.055,0-653.305,28.164-706.609,82.683c2.086,1.923,4.025,3.976,5.827,6.135c44.93-37.854,320.1-75.964,700.783-75.964
						c390.455,0,670.038,40.097,703.905,78.882c1.664-2.127,3.443-4.165,5.368-6.081
						C2525.008,2705.029,2185.504,2675.823,1859.762,2675.823z"/>
				</g>
				<g>
					
						<linearGradient id="SVGID_00000147926336301507886530000000614297800881252790_" gradientUnits="userSpaceOnUse" x1="1191.3159" y1="2718.3306" x2="2842.894" y2="2718.3306">
						<stop  offset="0" style="stop-color:#FCB148"/>
						<stop  offset="0.0521" style="stop-color:#FDBA46"/>
						<stop  offset="0.1424" style="stop-color:#FFC244"/>
						<stop  offset="0.3183" style="stop-color:#FFC444"/>
						<stop  offset="0.4849" style="stop-color:#FDB946"/>
						<stop  offset="0.7754" style="stop-color:#F99C4D"/>
						<stop  offset="0.8658" style="stop-color:#F8924F"/>
						<stop  offset="1" style="stop-color:#F8924F"/>
					</linearGradient>
					<path style="fill:url(#SVGID_00000147926336301507886530000000614297800881252790_);" d="M1314.043,2592.149v159.212
						c0,51.448,321.371,93.151,717.804,93.151c396.431,0,717.802-41.704,717.802-93.151v-159.212H1314.043z"/>
					
						<linearGradient id="SVGID_00000033358414838724905470000013877530130406772648_" gradientUnits="userSpaceOnUse" x1="2024.6951" y1="2532.2874" x2="2111.7646" y2="3261.187">
						<stop  offset="0" style="stop-color:#FFDB44"/>
						<stop  offset="1" style="stop-color:#FEEF06"/>
					</linearGradient>
					
						<ellipse style="fill:url(#SVGID_00000033358414838724905470000013877530130406772648_);" cx="2031.846" cy="2592.149" rx="717.803" ry="93.151"/>
					
						<linearGradient id="SVGID_00000010272891584615903680000012255787334430279324_" gradientUnits="userSpaceOnUse" x1="2020.9095" y1="2499.7815" x2="2047.6499" y2="2723.6372">
						<stop  offset="0" style="stop-color:#FFDB44"/>
						<stop  offset="1" style="stop-color:#FEEF06"/>
					</linearGradient>
					<path style="fill:url(#SVGID_00000010272891584615903680000012255787334430279324_);" d="M2031.843,2691.723
						c-351.089,0-718.218-33.533-718.218-98.214c0-3.552,1.267-9.795,4.819-9.795c3.552,0,2.024,4.882,2.024,8.435
						c0,41.02,292.153,86.722,711.374,86.722c419.223,0,711.376-45.702,711.376-86.722c0-3.552,0.606-6.88,4.158-6.88
						s2.695,4.74,2.695,8.292C2750.073,2658.241,2382.935,2691.723,2031.843,2691.723z"/>
					<g>
						<path style="fill:#FCB048;" d="M1964.017,2597.342c7.043-4.876,14.536-9.681,22.558-14.43
							c7.946-4.742,18.299-9.026,30.836-12.855c12.612-3.827,28.383-6.942,47.318-9.357c18.934-2.415,42.608-3.688,70.876-3.828
							c27.741-0.136,53.759,0.747,78.126,2.646c24.292,1.89,45.733,4.732,64.246,8.506c18.438,3.774,33.496,8.444,45.102,13.991
							c11.53,5.565,18.402,11.931,20.618,19.11l80.823,0.818c5.865,0.036,11.054,0.512,15.495,1.433
							c4.516,0.922,6.701,2.084,6.708,3.497l0.033,6.654l-103.905-1c-3.644,8.15-12.929,15.605-27.858,22.367
							c-14.853,6.769-33.845,12.623-56.976,17.578l-37.843-5.263c-3.385-0.516-6.17-1.175-8.354-1.977
							c-2.184-0.794-3.24-1.659-3.245-2.602c-0.006-1.281,2.918-2.739,8.775-4.376c5.857-1.645,12.461-3.68,19.818-6.103
							c7.356-2.417,14.56-5.275,21.685-8.575c7.051-3.293,11.769-7.229,14.227-11.813l-245.252-2.432
							c-6.442,4.741-13.711,9.398-21.658,13.975c-8.022,4.577-18.603,8.699-31.815,12.359c-13.214,3.658-29.664,6.628-49.351,8.916
							c-19.762,2.281-44.49,3.492-74.411,3.639c-22.479,0.111-44.361-0.742-65.796-2.55c-21.435-1.814-40.47-4.528-57.102-8.139
							c-16.632-3.619-30.262-8.09-40.963-13.413c-10.627-5.33-16.597-11.448-17.834-18.367l-66.538-0.683
							c-5.865-0.036-11.054-0.495-15.719-1.384c-4.59-0.887-6.927-2.066-6.934-3.543l-0.033-6.655l90.974,0.867
							c4.025-7.011,12.265-13.124,24.871-18.323c12.604-5.208,27.994-9.838,46.167-13.89l30.47,4.183
							c9.254,1.3,13.847,2.82,13.856,4.568c0.003,0.944-1.869,2.11-5.697,3.508c-3.903,1.398-8.406,3.068-13.659,5.007
							c-5.178,1.945-10.279,4.218-15.153,6.836c-4.949,2.61-8.618,5.566-11.082,8.876L1964.017,2597.342z M1739.571,2606.41
							c1.827,4.365,5.904,8.12,12.085,11.281c6.179,3.17,13.861,5.767,23.118,7.805c9.257,2.039,19.64,3.53,31.146,4.484
							c11.583,0.952,23.689,1.401,36.32,1.34c14.734-0.073,27.588-0.71,38.558-1.904c10.896-1.202,20.51-2.825,28.845-4.884
							c8.261-2.059,15.541-4.443,21.693-7.165c6.151-2.722,11.625-5.67,16.57-8.854L1739.571,2606.41z M2273.475,2600.459
							c-1.825-4.422-6.281-8.297-13.212-11.628c-6.934-3.323-15.819-6.127-26.581-8.387c-10.763-2.27-23.325-3.957-37.691-5.06
							c-14.29-1.104-30.081-1.616-47.371-1.532c-15.337,0.076-28.641,0.765-39.685,2.057c-11.046,1.302-20.66,3.04-28.844,5.239
							c-8.109,2.189-15.088,4.743-20.713,7.66c-5.7,2.916-11.022,6.035-15.893,9.358L2273.475,2600.459z"/>
					</g>
					
						<linearGradient id="SVGID_00000031919026093132772720000018237803288230504845_" gradientUnits="userSpaceOnUse" x1="-376.7977" y1="1427.6704" x2="-350.1521" y2="1650.733" gradientTransform="matrix(-1 0 0 -1 1669.249 4127.8389)">
						<stop  offset="0.0036" style="stop-color:#F36F56"/>
						<stop  offset="0.3059" style="stop-color:#F99C4C"/>
						<stop  offset="0.545" style="stop-color:#FDB946"/>
						<stop  offset="0.6817" style="stop-color:#FFC444"/>
						<stop  offset="0.8038" style="stop-color:#FFC244"/>
						<stop  offset="0.8667" style="stop-color:#FEBA46"/>
						<stop  offset="0.916" style="stop-color:#FCAD49"/>
						<stop  offset="0.958" style="stop-color:#F99A4D"/>
						<stop  offset="0.9955" style="stop-color:#F58152"/>
						<stop  offset="1" style="stop-color:#F57E53"/>
					</linearGradient>
					<path style="fill:url(#SVGID_00000031919026093132772720000018237803288230504845_);" d="M2031.943,2509.081
						c-320.055,0-653.304,28.163-706.609,82.683c2.086,1.923,4.025,3.976,5.827,6.135c44.928-37.854,320.1-75.964,700.782-75.964
						c390.455,0,670.038,40.097,703.904,78.882c1.664-2.127,3.442-4.164,5.368-6.081
						C2697.188,2538.286,2357.684,2509.081,2031.943,2509.081z"/>
				</g>
				<g>
					
						<linearGradient id="SVGID_00000158021027123904623070000006976490270369526692_" gradientUnits="userSpaceOnUse" x1="1295.8011" y1="2551.0989" x2="2947.3774" y2="2551.0989">
						<stop  offset="0" style="stop-color:#FCB148"/>
						<stop  offset="0.0521" style="stop-color:#FDBA46"/>
						<stop  offset="0.1424" style="stop-color:#FFC244"/>
						<stop  offset="0.3183" style="stop-color:#FFC444"/>
						<stop  offset="0.4849" style="stop-color:#FDB946"/>
						<stop  offset="0.7754" style="stop-color:#F99C4D"/>
						<stop  offset="0.8658" style="stop-color:#F8924F"/>
						<stop  offset="1" style="stop-color:#F8924F"/>
					</linearGradient>
					<path style="fill:url(#SVGID_00000158021027123904623070000006976490270369526692_);" d="M1418.528,2424.917v159.212
						c0,51.448,321.37,93.151,717.802,93.151c396.431,0,717.802-41.704,717.802-93.151v-159.212H1418.528z"/>
					
						<linearGradient id="SVGID_00000121240519918594656220000008963442612284415118_" gradientUnits="userSpaceOnUse" x1="2129.1794" y1="2365.0544" x2="2216.249" y2="3093.9548">
						<stop  offset="0" style="stop-color:#FFDB44"/>
						<stop  offset="1" style="stop-color:#FEEF06"/>
					</linearGradient>
					<path style="fill:url(#SVGID_00000121240519918594656220000008963442612284415118_);" d="M2854.132,2424.916
						c0,51.446-321.371,93.153-717.802,93.153c-396.432,0-717.802-41.707-717.802-93.153c0-51.445,321.37-93.151,717.802-93.151
						C2532.761,2331.764,2854.132,2373.471,2854.132,2424.916z"/>
					
						<linearGradient id="SVGID_00000081606403630950175740000005369350076068574389_" gradientUnits="userSpaceOnUse" x1="2125.3931" y1="2332.5481" x2="2152.1335" y2="2556.4053">
						<stop  offset="0" style="stop-color:#FFDB44"/>
						<stop  offset="1" style="stop-color:#FEEF06"/>
					</linearGradient>
					<path style="fill:url(#SVGID_00000081606403630950175740000005369350076068574389_);" d="M2136.327,2524.492
						c-351.089,0-718.218-33.535-718.218-98.214c0-3.552,1.267-9.796,4.819-9.796c3.552,0,2.025,4.884,2.025,8.436
						c0,41.019,292.153,86.721,711.374,86.721c419.223,0,711.376-45.702,711.376-86.721c0-3.552,0.606-6.881,4.158-6.881
						c3.552,0,2.695,4.74,2.695,8.292C2854.556,2491.009,2487.418,2524.492,2136.327,2524.492z"/>
					<g>
						<path style="fill:#FCB048;" d="M2068.5,2430.108c7.043-4.876,14.538-9.681,22.558-14.431
							c7.946-4.74,18.301-9.026,30.837-12.854c12.612-3.829,28.385-6.942,47.318-9.357c18.933-2.415,42.61-3.688,70.876-3.827
							c27.741-0.136,53.759,0.745,78.126,2.644c24.293,1.892,45.733,4.732,64.246,8.506c18.438,3.775,33.497,8.444,45.102,13.992
							c11.53,5.564,18.402,11.932,20.618,19.109l80.823,0.818c5.865,0.038,11.055,0.512,15.495,1.435
							c4.515,0.922,6.701,2.084,6.708,3.495l0.033,6.655l-103.905-1c-3.644,8.15-12.93,15.605-27.858,22.367
							c-14.851,6.768-33.844,12.623-56.976,17.578l-37.841-5.264c-3.386-0.517-6.171-1.177-8.355-1.979
							c-2.184-0.792-3.241-1.657-3.245-2.602c-0.007-1.279,2.919-2.738,8.775-4.375c5.857-1.646,12.463-3.68,19.817-6.105
							c7.356-2.415,14.56-5.273,21.685-8.575c7.051-3.291,11.769-7.229,14.227-11.812l-245.25-2.432
							c-6.444,4.742-13.712,9.398-21.66,13.973c-8.022,4.579-18.601,8.7-31.815,12.359c-13.214,3.66-29.664,6.628-49.351,8.917
							c-19.76,2.279-44.489,3.492-74.411,3.639c-22.478,0.109-44.36-0.743-65.796-2.55c-21.435-1.815-40.468-4.528-57.102-8.139
							c-16.632-3.62-30.262-8.091-40.963-13.413c-10.627-5.332-16.596-11.448-17.833-18.369l-66.539-0.682
							c-5.863-0.038-11.054-0.497-15.719-1.384c-4.59-0.889-6.926-2.067-6.934-3.544l-0.032-6.655l90.972,0.867
							c4.025-7.011,12.265-13.124,24.871-18.323c12.605-5.207,27.994-9.836,46.168-13.89l30.468,4.183
							c9.254,1.3,13.847,2.822,13.856,4.569c0.005,0.942-1.869,2.11-5.697,3.506c-3.902,1.398-8.405,3.07-13.659,5.007
							c-5.178,1.945-10.279,4.22-15.153,6.836c-4.949,2.61-8.618,5.565-11.082,8.876L2068.5,2430.108z M1844.054,2439.177
							c1.827,4.365,5.904,8.12,12.085,11.281c6.181,3.171,13.861,5.767,23.118,7.807c9.257,2.039,19.64,3.53,31.148,4.482
							c11.582,0.954,23.688,1.403,36.318,1.341c14.736-0.073,27.588-0.71,38.558-1.904c10.896-1.204,20.512-2.826,28.847-4.885
							c8.259-2.059,15.541-4.441,21.692-7.163c6.151-2.722,11.625-5.67,16.572-8.854L1844.054,2439.177z M2377.96,2433.227
							c-1.827-4.422-6.282-8.299-13.214-11.63c-6.934-3.321-15.817-6.125-26.58-8.387c-10.761-2.27-23.325-3.956-37.689-5.058
							c-14.29-1.104-30.08-1.618-47.372-1.532c-15.337,0.076-28.64,0.764-39.686,2.058c-11.046,1.302-20.66,3.038-28.844,5.237
							c-8.109,2.19-15.088,4.743-20.713,7.66c-5.7,2.917-11.022,6.037-15.892,9.36L2377.96,2433.227z"/>
					</g>
					
						<linearGradient id="SVGID_00000107546402962244629080000011009293519305846966_" gradientUnits="userSpaceOnUse" x1="-481.2812" y1="1594.9022" x2="-454.6356" y2="1817.9648" gradientTransform="matrix(-1 0 0 -1 1669.249 4127.8389)">
						<stop  offset="0.0036" style="stop-color:#F36F56"/>
						<stop  offset="0.3059" style="stop-color:#F99C4C"/>
						<stop  offset="0.545" style="stop-color:#FDB946"/>
						<stop  offset="0.6817" style="stop-color:#FFC444"/>
						<stop  offset="0.8038" style="stop-color:#FFC244"/>
						<stop  offset="0.8667" style="stop-color:#FEBA46"/>
						<stop  offset="0.916" style="stop-color:#FCAD49"/>
						<stop  offset="0.958" style="stop-color:#F99A4D"/>
						<stop  offset="0.9955" style="stop-color:#F58152"/>
						<stop  offset="1" style="stop-color:#F57E53"/>
					</linearGradient>
					<path style="fill:url(#SVGID_00000107546402962244629080000011009293519305846966_);" d="M2136.427,2341.849
						c-320.055,0-653.304,28.164-706.609,82.683c2.086,1.923,4.025,3.975,5.827,6.135c44.93-37.854,320.1-75.966,700.782-75.966
						c390.457,0,670.038,40.098,703.905,78.884c1.664-2.127,3.443-4.164,5.368-6.081
						C2801.672,2371.053,2462.168,2341.849,2136.427,2341.849z"/>
				</g>
				<g>
					
						<linearGradient id="SVGID_00000029727883247431387920000008398132478012543398_" gradientUnits="userSpaceOnUse" x1="1218.6808" y1="2370.6733" x2="2870.2588" y2="2370.6733">
						<stop  offset="0" style="stop-color:#FCB148"/>
						<stop  offset="0.0521" style="stop-color:#FDBA46"/>
						<stop  offset="0.1424" style="stop-color:#FFC244"/>
						<stop  offset="0.3183" style="stop-color:#FFC444"/>
						<stop  offset="0.4849" style="stop-color:#FDB946"/>
						<stop  offset="0.7754" style="stop-color:#F99C4D"/>
						<stop  offset="0.8658" style="stop-color:#F8924F"/>
						<stop  offset="1" style="stop-color:#F8924F"/>
					</linearGradient>
					<path style="fill:url(#SVGID_00000029727883247431387920000008398132478012543398_);" d="M1341.408,2244.492v159.212
						c0,51.448,321.371,93.151,717.804,93.151c396.431,0,717.802-41.704,717.802-93.151v-159.212H1341.408z"/>
					
						<linearGradient id="SVGID_00000063603877480476873190000010589674026049107126_" gradientUnits="userSpaceOnUse" x1="2052.0598" y1="2184.6299" x2="2139.1294" y2="2913.5295">
						<stop  offset="0" style="stop-color:#FFDB44"/>
						<stop  offset="1" style="stop-color:#FEEF06"/>
					</linearGradient>
					
						<ellipse style="fill:url(#SVGID_00000063603877480476873190000010589674026049107126_);" cx="2059.211" cy="2244.492" rx="717.803" ry="93.151"/>
					
						<linearGradient id="SVGID_00000030483073812982239240000004685570882477115322_" gradientUnits="userSpaceOnUse" x1="2048.2742" y1="2152.1226" x2="2075.0146" y2="2375.9797">
						<stop  offset="0" style="stop-color:#FFDB44"/>
						<stop  offset="1" style="stop-color:#FEEF06"/>
					</linearGradient>
					<path style="fill:url(#SVGID_00000030483073812982239240000004685570882477115322_);" d="M2059.208,2344.066
						c-351.09,0-718.218-33.534-718.218-98.214c0-3.552,1.267-9.796,4.819-9.796s2.024,4.884,2.024,8.436
						c0,41.019,292.153,86.721,711.375,86.721c419.223,0,711.376-45.702,711.376-86.721c0-3.552,0.606-6.88,4.158-6.88
						s2.695,4.74,2.695,8.292C2777.437,2310.583,2410.299,2344.066,2059.208,2344.066z"/>
					<g>
						<path style="fill:#FCB048;" d="M1991.381,2249.683c7.043-4.876,14.536-9.679,22.558-14.429
							c7.946-4.742,18.299-9.026,30.836-12.855c12.612-3.829,28.383-6.942,47.318-9.357c18.933-2.415,42.608-3.688,70.876-3.828
							c27.741-0.136,53.759,0.745,78.126,2.645c24.292,1.892,45.733,4.732,64.246,8.508c18.438,3.773,33.497,8.442,45.103,13.991
							c11.53,5.564,18.402,11.931,20.618,19.109l80.823,0.819c5.865,0.036,11.054,0.511,15.495,1.433
							c4.516,0.922,6.701,2.084,6.708,3.495l0.033,6.655l-103.905-1c-3.644,8.15-12.93,15.605-27.858,22.367
							c-14.853,6.769-33.845,12.623-56.976,17.578l-37.841-5.264c-3.386-0.517-6.171-1.177-8.355-1.979
							c-2.184-0.792-3.241-1.657-3.246-2.602c-0.006-1.28,2.918-2.738,8.775-4.375c5.857-1.646,12.462-3.68,19.818-6.105
							c7.356-2.415,14.56-5.273,21.685-8.574c7.051-3.293,11.769-7.231,14.226-11.813l-245.252-2.432
							c-6.442,4.741-13.711,9.398-21.658,13.975c-8.022,4.577-18.603,8.699-31.815,12.359c-13.214,3.658-29.665,6.627-49.351,8.916
							c-19.762,2.279-44.49,3.492-74.411,3.639c-22.479,0.111-44.361-0.743-65.796-2.549c-21.435-1.816-40.47-4.528-57.102-8.139
							c-16.632-3.62-30.262-8.092-40.963-13.414c-10.627-5.332-16.597-11.448-17.834-18.367l-66.538-0.683
							c-5.865-0.038-11.054-0.497-15.72-1.384c-4.59-0.889-6.927-2.067-6.934-3.544l-0.033-6.654l90.974,0.867
							c4.025-7.013,12.265-13.126,24.871-18.324c12.604-5.207,27.994-9.836,46.167-13.89l30.469,4.183
							c9.254,1.302,13.847,2.822,13.856,4.569c0.003,0.944-1.87,2.11-5.697,3.507c-3.903,1.398-8.406,3.07-13.659,5.007
							c-5.178,1.945-10.279,4.22-15.153,6.837c-4.949,2.608-8.618,5.564-11.082,8.876L1991.381,2249.683z M1766.935,2258.753
							c1.827,4.364,5.904,8.118,12.085,11.282c6.179,3.169,13.861,5.766,23.118,7.805c9.257,2.039,19.64,3.53,31.146,4.484
							c11.584,0.952,23.689,1.401,36.32,1.34c14.734-0.073,27.588-0.71,38.558-1.904c10.896-1.202,20.51-2.825,28.845-4.885
							c8.261-2.059,15.541-4.441,21.693-7.163c6.151-2.722,11.625-5.67,16.57-8.854L1766.935,2258.753z M2300.84,2252.802
							c-1.825-4.422-6.281-8.299-13.213-11.629c-6.934-3.322-15.819-6.126-26.58-8.387c-10.763-2.27-23.325-3.956-37.691-5.058
							c-14.29-1.104-30.081-1.618-47.37-1.533c-15.337,0.076-28.641,0.764-39.686,2.058c-11.046,1.302-20.66,3.04-28.844,5.237
							c-8.109,2.191-15.088,4.745-20.712,7.66c-5.7,2.917-11.022,6.037-15.894,9.36L2300.84,2252.802z"/>
					</g>
					
						<linearGradient id="SVGID_00000105399790389409890480000007365319909852877474_" gradientUnits="userSpaceOnUse" x1="-404.1624" y1="1775.3278" x2="-377.5168" y2="1998.3904" gradientTransform="matrix(-1 0 0 -1 1669.249 4127.8389)">
						<stop  offset="0.0036" style="stop-color:#F36F56"/>
						<stop  offset="0.3059" style="stop-color:#F99C4C"/>
						<stop  offset="0.545" style="stop-color:#FDB946"/>
						<stop  offset="0.6817" style="stop-color:#FFC444"/>
						<stop  offset="0.8038" style="stop-color:#FFC244"/>
						<stop  offset="0.8667" style="stop-color:#FEBA46"/>
						<stop  offset="0.916" style="stop-color:#FCAD49"/>
						<stop  offset="0.958" style="stop-color:#F99A4D"/>
						<stop  offset="0.9955" style="stop-color:#F58152"/>
						<stop  offset="1" style="stop-color:#F57E53"/>
					</linearGradient>
					<path style="fill:url(#SVGID_00000105399790389409890480000007365319909852877474_);" d="M2059.308,2161.423
						c-320.055,0-653.304,28.164-706.609,82.683c2.086,1.923,4.025,3.976,5.827,6.135c44.928-37.854,320.1-75.964,700.782-75.964
						c390.455,0,670.038,40.097,703.905,78.882c1.664-2.127,3.443-4.164,5.368-6.081
						C2724.553,2190.627,2385.049,2161.423,2059.308,2161.423z"/>
				</g>
				<g>
					
						<linearGradient id="SVGID_00000066491609091593534600000011452536622976702363_" gradientUnits="userSpaceOnUse" x1="1019.137" y1="2203.4397" x2="2670.7131" y2="2203.4397">
						<stop  offset="0" style="stop-color:#FCB148"/>
						<stop  offset="0.0521" style="stop-color:#FDBA46"/>
						<stop  offset="0.1424" style="stop-color:#FFC244"/>
						<stop  offset="0.3183" style="stop-color:#FFC444"/>
						<stop  offset="0.4849" style="stop-color:#FDB946"/>
						<stop  offset="0.7754" style="stop-color:#F99C4D"/>
						<stop  offset="0.8658" style="stop-color:#F8924F"/>
						<stop  offset="1" style="stop-color:#F8924F"/>
					</linearGradient>
					<path style="fill:url(#SVGID_00000066491609091593534600000011452536622976702363_);" d="M1141.864,2077.258v159.213
						c0,51.446,321.37,93.15,717.802,93.15c396.431,0,717.802-41.704,717.802-93.15v-159.213H1141.864z"/>
					
						<linearGradient id="SVGID_00000155138470892527321990000009652485933979406234_" gradientUnits="userSpaceOnUse" x1="1852.5151" y1="2017.3965" x2="1939.5847" y2="2746.2957">
						<stop  offset="0" style="stop-color:#FFDB44"/>
						<stop  offset="1" style="stop-color:#FEEF06"/>
					</linearGradient>
					
						<ellipse style="fill:url(#SVGID_00000155138470892527321990000009652485933979406234_);" cx="1859.666" cy="2077.258" rx="717.802" ry="93.151"/>
					
						<linearGradient id="SVGID_00000101816275393358538460000002002904970823955116_" gradientUnits="userSpaceOnUse" x1="1848.7289" y1="1984.8907" x2="1875.4694" y2="2208.7478">
						<stop  offset="0" style="stop-color:#FFDB44"/>
						<stop  offset="1" style="stop-color:#FEEF06"/>
					</linearGradient>
					<path style="fill:url(#SVGID_00000101816275393358538460000002002904970823955116_);" d="M1859.663,2176.834
						c-351.089,0-718.218-33.534-718.218-98.216c0-3.552,1.267-9.795,4.819-9.795c3.552,0,2.024,4.883,2.024,8.435
						c0,41.02,292.153,86.722,711.374,86.722c419.223,0,711.376-45.702,711.376-86.722c0-3.552,0.605-6.88,4.158-6.88
						c3.552,0,2.695,4.74,2.695,8.292C2577.892,2143.352,2210.754,2176.834,1859.663,2176.834z"/>
					<g>
						<path style="fill:#FCB048;" d="M1791.836,2082.451c7.043-4.876,14.538-9.681,22.558-14.43
							c7.946-4.742,18.301-9.026,30.836-12.854c12.612-3.829,28.385-6.943,47.318-9.358c18.933-2.415,42.61-3.688,70.876-3.826
							c27.741-0.138,53.759,0.745,78.126,2.645c24.293,1.892,45.734,4.732,64.246,8.506c18.438,3.775,33.497,8.444,45.103,13.992
							c11.53,5.564,18.402,11.932,20.618,19.109l80.823,0.818c5.864,0.036,11.055,0.512,15.495,1.435
							c4.515,0.92,6.701,2.084,6.708,3.495l0.033,6.655l-103.905-1.001c-3.644,8.15-12.93,15.606-27.858,22.367
							c-14.853,6.769-33.844,12.623-56.975,17.578l-37.841-5.264c-3.386-0.516-6.171-1.175-8.356-1.977
							c-2.184-0.794-3.241-1.657-3.246-2.602c-0.006-1.28,2.92-2.74,8.775-4.376c5.857-1.645,12.463-3.68,19.817-6.103
							c7.356-2.417,14.56-5.275,21.685-8.575c7.051-3.293,11.769-7.229,14.227-11.813l-245.251-2.433
							c-6.443,4.743-13.712,9.398-21.66,13.975c-8.022,4.577-18.601,8.7-31.815,12.359c-13.214,3.66-29.664,6.628-49.351,8.916
							c-19.76,2.281-44.489,3.494-74.411,3.639c-22.478,0.111-44.361-0.742-65.796-2.55c-21.436-1.814-40.468-4.528-57.102-8.139
							c-16.632-3.619-30.262-8.09-40.964-13.412c-10.627-5.332-16.596-11.449-17.832-18.369l-66.539-0.683
							c-5.863-0.036-11.054-0.495-15.72-1.382c-4.59-0.889-6.926-2.067-6.934-3.544l-0.033-6.656l90.974,0.867
							c4.025-7.011,12.265-13.124,24.871-18.323c12.605-5.207,27.994-9.837,46.168-13.89l30.468,4.183
							c9.254,1.3,13.847,2.82,13.856,4.568c0.005,0.944-1.87,2.11-5.697,3.508c-3.902,1.398-8.405,3.07-13.659,5.007
							c-5.178,1.945-10.279,4.218-15.153,6.836c-4.949,2.61-8.618,5.566-11.082,8.876L1791.836,2082.451z M1567.39,2091.52
							c1.827,4.365,5.904,8.12,12.085,11.281c6.181,3.17,13.861,5.767,23.118,7.805c9.257,2.039,19.64,3.532,31.148,4.484
							c11.582,0.952,23.688,1.401,36.318,1.34c14.736-0.071,27.588-0.708,38.558-1.904c10.896-1.202,20.512-2.825,28.847-4.884
							c8.259-2.059,15.539-4.443,21.692-7.163c6.151-2.722,11.625-5.67,16.572-8.854L1567.39,2091.52z M2101.296,2085.568
							c-1.827-4.422-6.282-8.297-13.214-11.628c-6.934-3.323-15.817-6.127-26.58-8.387c-10.761-2.27-23.325-3.956-37.689-5.06
							c-14.29-1.102-30.08-1.616-47.372-1.531c-15.337,0.074-28.64,0.764-39.685,2.056c-11.046,1.302-20.661,3.04-28.844,5.238
							c-8.109,2.191-15.089,4.743-20.713,7.66c-5.7,2.917-11.022,6.035-15.892,9.358L2101.296,2085.568z"/>
					</g>
					
						<linearGradient id="SVGID_00000096765945819986805660000005514584746901514669_" gradientUnits="userSpaceOnUse" x1="-204.6169" y1="1942.5613" x2="-177.9713" y2="2165.6238" gradientTransform="matrix(-1 0 0 -1 1669.249 4127.8389)">
						<stop  offset="0.0036" style="stop-color:#F36F56"/>
						<stop  offset="0.3059" style="stop-color:#F99C4C"/>
						<stop  offset="0.545" style="stop-color:#FDB946"/>
						<stop  offset="0.6817" style="stop-color:#FFC444"/>
						<stop  offset="0.8038" style="stop-color:#FFC244"/>
						<stop  offset="0.8667" style="stop-color:#FEBA46"/>
						<stop  offset="0.916" style="stop-color:#FCAD49"/>
						<stop  offset="0.958" style="stop-color:#F99A4D"/>
						<stop  offset="0.9955" style="stop-color:#F58152"/>
						<stop  offset="1" style="stop-color:#F57E53"/>
					</linearGradient>
					<path style="fill:url(#SVGID_00000096765945819986805660000005514584746901514669_);" d="M1859.762,1994.19
						c-320.055,0-653.305,28.164-706.609,82.683c2.086,1.925,4.025,3.976,5.827,6.135c44.93-37.854,320.1-75.964,700.783-75.964
						c390.455,0,670.038,40.097,703.905,78.882c1.664-2.127,3.443-4.163,5.368-6.081
						C2525.008,2023.395,2185.504,1994.19,1859.762,1994.19z"/>
				</g>
				<g>
					
						<linearGradient id="SVGID_00000160166669051919600720000007055902981971154877_" gradientUnits="userSpaceOnUse" x1="1191.3159" y1="2036.6982" x2="2842.894" y2="2036.6982">
						<stop  offset="0" style="stop-color:#FCB148"/>
						<stop  offset="0.0521" style="stop-color:#FDBA46"/>
						<stop  offset="0.1424" style="stop-color:#FFC244"/>
						<stop  offset="0.3183" style="stop-color:#FFC444"/>
						<stop  offset="0.4849" style="stop-color:#FDB946"/>
						<stop  offset="0.7754" style="stop-color:#F99C4D"/>
						<stop  offset="0.8658" style="stop-color:#F8924F"/>
						<stop  offset="1" style="stop-color:#F8924F"/>
					</linearGradient>
					<path style="fill:url(#SVGID_00000160166669051919600720000007055902981971154877_);" d="M1314.043,1910.517v159.212
						c0,51.446,321.371,93.151,717.804,93.151c396.431,0,717.802-41.705,717.802-93.151v-159.212H1314.043z"/>
					
						<linearGradient id="SVGID_00000156579436070613753280000011392433598706220689_" gradientUnits="userSpaceOnUse" x1="2024.6951" y1="1850.6533" x2="2111.7646" y2="2579.5527">
						<stop  offset="0" style="stop-color:#FFDB44"/>
						<stop  offset="1" style="stop-color:#FEEF06"/>
					</linearGradient>
					
						<ellipse style="fill:url(#SVGID_00000156579436070613753280000011392433598706220689_);" cx="2031.846" cy="1910.515" rx="717.803" ry="93.151"/>
					
						<linearGradient id="SVGID_00000174563029782419490800000002415888696887629954_" gradientUnits="userSpaceOnUse" x1="2020.9095" y1="1818.1476" x2="2047.6501" y2="2042.0046">
						<stop  offset="0" style="stop-color:#FFDB44"/>
						<stop  offset="1" style="stop-color:#FEEF06"/>
					</linearGradient>
					<path style="fill:url(#SVGID_00000174563029782419490800000002415888696887629954_);" d="M2031.843,2010.091
						c-351.089,0-718.218-33.535-718.218-98.216c0-3.552,1.267-9.795,4.819-9.795c3.552,0,2.024,4.884,2.024,8.436
						c0,41.019,292.153,86.721,711.374,86.721c419.223,0,711.376-45.702,711.376-86.721c0-3.552,0.606-6.881,4.158-6.881
						s2.695,4.74,2.695,8.292C2750.073,1976.609,2382.935,2010.091,2031.843,2010.091z"/>
					<g>
						<path style="fill:#FCB048;" d="M1964.017,1915.708c7.043-4.876,14.536-9.681,22.558-14.431
							c7.946-4.74,18.299-9.026,30.836-12.854c12.612-3.829,28.383-6.943,47.318-9.358c18.934-2.415,42.608-3.688,70.876-3.826
							c27.741-0.136,53.759,0.745,78.126,2.644c24.292,1.892,45.733,4.732,64.246,8.506c18.438,3.775,33.496,8.444,45.102,13.992
							c11.53,5.564,18.402,11.931,20.618,19.109l80.823,0.818c5.865,0.038,11.054,0.512,15.495,1.435
							c4.516,0.921,6.701,2.085,6.708,3.495l0.033,6.655l-103.905-1.001c-3.644,8.15-12.929,15.606-27.858,22.367
							c-14.853,6.769-33.845,12.623-56.976,17.578l-37.843-5.262c-3.385-0.517-6.17-1.177-8.354-1.979
							c-2.184-0.794-3.24-1.658-3.245-2.602c-0.006-1.28,2.918-2.739,8.775-4.376c5.857-1.645,12.461-3.679,19.818-6.103
							c7.356-2.417,14.56-5.275,21.685-8.575c7.051-3.293,11.769-7.229,14.227-11.813l-245.252-2.431
							c-6.442,4.742-13.711,9.396-21.658,13.974c-8.022,4.577-18.603,8.7-31.815,12.359c-13.214,3.66-29.664,6.629-49.351,8.916
							c-19.762,2.281-44.49,3.494-74.411,3.641c-22.479,0.109-44.361-0.743-65.796-2.549c-21.435-1.816-40.47-4.528-57.102-8.141
							c-16.632-3.619-30.262-8.09-40.963-13.412c-10.627-5.332-16.597-11.449-17.834-18.369l-66.538-0.683
							c-5.865-0.036-11.054-0.495-15.719-1.382c-4.59-0.889-6.927-2.067-6.934-3.544l-0.033-6.655l90.974,0.867
							c4.025-7.011,12.265-13.124,24.871-18.323c12.604-5.207,27.994-9.838,46.167-13.89l30.47,4.183
							c9.254,1.3,13.847,2.82,13.856,4.569c0.003,0.943-1.869,2.11-5.697,3.506c-3.903,1.398-8.406,3.07-13.659,5.007
							c-5.178,1.945-10.279,4.22-15.153,6.836c-4.949,2.61-8.618,5.566-11.082,8.876L1964.017,1915.708z M1739.571,1924.776
							c1.827,4.365,5.904,8.12,12.085,11.282c6.179,3.171,13.861,5.766,23.118,7.805s19.64,3.532,31.146,4.484
							c11.583,0.952,23.689,1.403,36.32,1.34c14.734-0.071,27.588-0.709,38.558-1.904c10.896-1.202,20.51-2.825,28.845-4.884
							c8.261-2.059,15.541-4.441,21.693-7.163c6.151-2.722,11.625-5.67,16.57-8.854L1739.571,1924.776z M2273.475,1918.827
							c-1.825-4.422-6.281-8.299-13.212-11.63c-6.934-3.323-15.819-6.126-26.581-8.387c-10.763-2.27-23.325-3.955-37.691-5.059
							c-14.29-1.102-30.081-1.616-47.371-1.531c-15.337,0.074-28.641,0.764-39.685,2.058c-11.046,1.302-20.66,3.038-28.844,5.237
							c-8.109,2.191-15.088,4.743-20.713,7.66c-5.7,2.917-11.022,6.037-15.893,9.358L2273.475,1918.827z"/>
					</g>
					
						<linearGradient id="SVGID_00000063622685602365221850000009533375809926908558_" gradientUnits="userSpaceOnUse" x1="-376.7977" y1="2109.3044" x2="-350.1521" y2="2332.3669" gradientTransform="matrix(-1 0 0 -1 1669.249 4127.8389)">
						<stop  offset="0.0036" style="stop-color:#F36F56"/>
						<stop  offset="0.3059" style="stop-color:#F99C4C"/>
						<stop  offset="0.545" style="stop-color:#FDB946"/>
						<stop  offset="0.6817" style="stop-color:#FFC444"/>
						<stop  offset="0.8038" style="stop-color:#FFC244"/>
						<stop  offset="0.8667" style="stop-color:#FEBA46"/>
						<stop  offset="0.916" style="stop-color:#FCAD49"/>
						<stop  offset="0.958" style="stop-color:#F99A4D"/>
						<stop  offset="0.9955" style="stop-color:#F58152"/>
						<stop  offset="1" style="stop-color:#F57E53"/>
					</linearGradient>
					<path style="fill:url(#SVGID_00000063622685602365221850000009533375809926908558_);" d="M2031.943,1827.447
						c-320.055,0-653.304,28.163-706.609,82.683c2.086,1.925,4.025,3.976,5.827,6.135c44.928-37.852,320.1-75.964,700.782-75.964
						c390.455,0,670.038,40.098,703.904,78.882c1.664-2.127,3.442-4.163,5.368-6.081
						C2697.188,1856.652,2357.684,1827.447,2031.943,1827.447z"/>
				</g>
				<g>
					
						<linearGradient id="SVGID_00000139277156602896815990000014829472120176048519_" gradientUnits="userSpaceOnUse" x1="1101.7596" y1="1869.4648" x2="2753.3359" y2="1869.4648">
						<stop  offset="0" style="stop-color:#FCB148"/>
						<stop  offset="0.0521" style="stop-color:#FDBA46"/>
						<stop  offset="0.1424" style="stop-color:#FFC244"/>
						<stop  offset="0.3183" style="stop-color:#FFC444"/>
						<stop  offset="0.4849" style="stop-color:#FDB946"/>
						<stop  offset="0.7754" style="stop-color:#F99C4D"/>
						<stop  offset="0.8658" style="stop-color:#F8924F"/>
						<stop  offset="1" style="stop-color:#F8924F"/>
					</linearGradient>
					<path style="fill:url(#SVGID_00000139277156602896815990000014829472120176048519_);" d="M1224.487,1743.283v159.212
						c0,51.448,321.37,93.151,717.802,93.151c396.431,0,717.802-41.703,717.802-93.151v-159.212H1224.487z"/>
					
						<linearGradient id="SVGID_00000067226044655715590340000008500203962162013593_" gradientUnits="userSpaceOnUse" x1="1935.1379" y1="1683.4214" x2="2022.2074" y2="2412.3208">
						<stop  offset="0" style="stop-color:#FFDB44"/>
						<stop  offset="1" style="stop-color:#FEEF06"/>
					</linearGradient>
					
						<ellipse style="fill:url(#SVGID_00000067226044655715590340000008500203962162013593_);" cx="1942.289" cy="1743.283" rx="717.802" ry="93.151"/>
					
						<linearGradient id="SVGID_00000049913643211518298800000008955025317907488674_" gradientUnits="userSpaceOnUse" x1="1931.3516" y1="1650.9156" x2="1958.0919" y2="1874.7714">
						<stop  offset="0" style="stop-color:#FFDB44"/>
						<stop  offset="1" style="stop-color:#FEEF06"/>
					</linearGradient>
					<path style="fill:url(#SVGID_00000049913643211518298800000008955025317907488674_);" d="M1942.285,1842.858
						c-351.089,0-718.218-33.535-718.218-98.214c0-3.552,1.267-9.795,4.819-9.795s2.024,4.882,2.024,8.435
						c0,41.02,292.153,86.722,711.374,86.722c419.223,0,711.376-45.702,711.376-86.722c0-3.552,0.606-6.88,4.158-6.88
						s2.695,4.74,2.695,8.292C2660.514,1809.375,2293.376,1842.858,1942.285,1842.858z"/>
					<g>
						<path style="fill:#FCB048;" d="M1874.459,1748.476c7.043-4.878,14.538-9.681,22.558-14.431
							c7.946-4.742,18.301-9.026,30.836-12.855c12.612-3.827,28.385-6.942,47.318-9.357c18.933-2.415,42.61-3.688,70.876-3.828
							c27.741-0.136,53.759,0.747,78.126,2.644c24.293,1.892,45.734,4.732,64.246,8.507c18.438,3.774,33.497,8.444,45.103,13.991
							c11.53,5.566,18.402,11.932,20.618,19.11l80.823,0.818c5.865,0.036,11.055,0.511,15.495,1.433
							c4.515,0.922,6.701,2.084,6.708,3.497l0.033,6.654l-103.905-1c-3.644,8.15-12.929,15.606-27.858,22.367
							c-14.853,6.769-33.844,12.623-56.976,17.578l-37.841-5.263c-3.386-0.517-6.171-1.175-8.355-1.977
							c-2.184-0.794-3.241-1.659-3.246-2.602c-0.006-1.281,2.92-2.739,8.775-4.376c5.857-1.645,12.461-3.68,19.818-6.105
							c7.356-2.415,14.56-5.273,21.685-8.574c7.051-3.293,11.769-7.231,14.226-11.813l-245.25-2.432
							c-6.443,4.742-13.712,9.398-21.66,13.975c-8.022,4.577-18.601,8.699-31.815,12.359c-13.214,3.658-29.665,6.629-49.351,8.916
							c-19.76,2.279-44.489,3.492-74.411,3.639c-22.478,0.111-44.361-0.742-65.796-2.55c-21.435-1.814-40.469-4.528-57.102-8.139
							c-16.632-3.62-30.262-8.09-40.963-13.413c-10.627-5.33-16.596-11.448-17.833-18.367l-66.539-0.683
							c-5.865-0.036-11.054-0.495-15.72-1.384c-4.59-0.889-6.926-2.067-6.934-3.543l-0.033-6.655l90.974,0.867
							c4.025-7.011,12.265-13.124,24.871-18.323c12.605-5.208,27.994-9.838,46.168-13.89l30.468,4.183
							c9.254,1.3,13.847,2.82,13.856,4.568c0.005,0.944-1.87,2.11-5.697,3.508c-3.902,1.397-8.405,3.068-13.659,5.006
							c-5.178,1.947-10.279,4.22-15.153,6.837c-4.949,2.61-8.618,5.564-11.082,8.876L1874.459,1748.476z M1650.012,1757.545
							c1.827,4.365,5.904,8.12,12.085,11.281c6.181,3.17,13.861,5.767,23.118,7.805c9.257,2.039,19.64,3.53,31.148,4.484
							c11.582,0.952,23.688,1.401,36.318,1.34c14.736-0.073,27.588-0.71,38.558-1.904c10.896-1.202,20.512-2.825,28.847-4.884
							c8.259-2.059,15.539-4.443,21.692-7.165c6.151-2.722,11.625-5.67,16.572-8.854L1650.012,1757.545z M2183.917,1751.593
							c-1.825-4.422-6.281-8.299-13.213-11.628c-6.934-3.323-15.818-6.127-26.58-8.389c-10.761-2.27-23.325-3.956-37.689-5.058
							c-14.292-1.104-30.081-1.616-47.372-1.532c-15.337,0.076-28.64,0.764-39.686,2.058c-11.046,1.302-20.66,3.04-28.844,5.238
							c-8.109,2.189-15.088,4.743-20.713,7.658c-5.7,2.917-11.022,6.037-15.892,9.36L2183.917,1751.593z"/>
					</g>
					
						<linearGradient id="SVGID_00000081605635959813041050000009401973139563244694_" gradientUnits="userSpaceOnUse" x1="-287.2396" y1="2276.5364" x2="-260.594" y2="2499.5989" gradientTransform="matrix(-1 0 0 -1 1669.249 4127.8389)">
						<stop  offset="0.0036" style="stop-color:#F36F56"/>
						<stop  offset="0.3059" style="stop-color:#F99C4C"/>
						<stop  offset="0.545" style="stop-color:#FDB946"/>
						<stop  offset="0.6817" style="stop-color:#FFC444"/>
						<stop  offset="0.8038" style="stop-color:#FFC244"/>
						<stop  offset="0.8667" style="stop-color:#FEBA46"/>
						<stop  offset="0.916" style="stop-color:#FCAD49"/>
						<stop  offset="0.958" style="stop-color:#F99A4D"/>
						<stop  offset="0.9955" style="stop-color:#F58152"/>
						<stop  offset="1" style="stop-color:#F57E53"/>
					</linearGradient>
					<path style="fill:url(#SVGID_00000081605635959813041050000009401973139563244694_);" d="M1942.385,1660.215
						c-320.055,0-653.304,28.163-706.609,82.683c2.086,1.923,4.025,3.976,5.827,6.135c44.929-37.854,320.1-75.964,700.782-75.964
						c390.456,0,670.038,40.097,703.905,78.882c1.664-2.127,3.443-4.164,5.368-6.081
						C2607.631,1689.42,2268.126,1660.215,1942.385,1660.215z"/>
				</g>
			</g>
			<g>
				<g>
					
						<linearGradient id="SVGID_00000078035722930912717340000001110979282768433585_" gradientUnits="userSpaceOnUse" x1="2011.3219" y1="1208.2371" x2="1298.0336" y2="1437.1527">
						<stop  offset="0" style="stop-color:#FCB148"/>
						<stop  offset="0.0521" style="stop-color:#FDBA46"/>
						<stop  offset="0.1424" style="stop-color:#FFC244"/>
						<stop  offset="0.3183" style="stop-color:#FFC444"/>
						<stop  offset="0.4849" style="stop-color:#FDB946"/>
						<stop  offset="0.7754" style="stop-color:#F99C4D"/>
						<stop  offset="0.8658" style="stop-color:#F8924F"/>
						<stop  offset="1" style="stop-color:#F8924F"/>
					</linearGradient>
					<path style="fill:url(#SVGID_00000078035722930912717340000001110979282768433585_);" d="M2832.469,1182.355
						c0,330.903-258.746,591.208-589.453,581.052c-344.168-10.568-633.625-307.808-633.625-663.508
						c0-355.7,289.457-613.911,633.625-578.074C2573.722,556.26,2832.469,851.452,2832.469,1182.355z"/>
					
						<linearGradient id="SVGID_00000062158636565564821630000005354266245206093223_" gradientUnits="userSpaceOnUse" x1="2588.3308" y1="498.2303" x2="1951.5509" y2="1903.0854">
						<stop  offset="0" style="stop-color:#FFDB44"/>
						<stop  offset="1" style="stop-color:#FEEF06"/>
					</linearGradient>
					<path style="fill:url(#SVGID_00000062158636565564821630000005354266245206093223_);" d="M2921.832,1153.823
						c0,330.903-258.746,591.207-589.453,581.052c-344.168-10.569-633.624-307.809-633.624-663.508
						c0-355.7,289.457-613.912,633.624-578.075C2663.086,527.728,2921.832,822.92,2921.832,1153.823z"/>
					
						<linearGradient id="SVGID_00000069380481995046123410000010655325204810840192_" gradientUnits="userSpaceOnUse" x1="2471.1946" y1="1981.6027" x2="2348.3267" y2="1310.3793">
						<stop  offset="0" style="stop-color:#FCB148"/>
						<stop  offset="0.0521" style="stop-color:#FDBA46"/>
						<stop  offset="0.1424" style="stop-color:#FFC244"/>
						<stop  offset="0.3183" style="stop-color:#FFC444"/>
						<stop  offset="0.4849" style="stop-color:#FDB946"/>
						<stop  offset="0.7754" style="stop-color:#F99C4D"/>
						<stop  offset="0.8658" style="stop-color:#F8924F"/>
						<stop  offset="1" style="stop-color:#F8924F"/>
					</linearGradient>
					<path style="fill:url(#SVGID_00000069380481995046123410000010655325204810840192_);" d="M2895.875,1152.073
						c0,316.331-247.573,564.753-563.496,554.522c-328.186-10.626-603.73-294.296-603.73-633.213
						c0-338.918,275.545-585.434,603.73-551.811C2648.302,553.94,2895.875,835.742,2895.875,1152.073z"/>
					
						<linearGradient id="SVGID_00000085242235082073780340000007274871990490976659_" gradientUnits="userSpaceOnUse" x1="2210.6909" y1="895.1539" x2="2717.0459" y2="1970.0492">
						<stop  offset="0" style="stop-color:#FCB148"/>
						<stop  offset="0.0521" style="stop-color:#FDBA46"/>
						<stop  offset="0.1424" style="stop-color:#FFC244"/>
						<stop  offset="0.3183" style="stop-color:#FFC444"/>
						<stop  offset="0.4849" style="stop-color:#FDB946"/>
						<stop  offset="0.7754" style="stop-color:#F99C4D"/>
						<stop  offset="0.8658" style="stop-color:#F8924F"/>
						<stop  offset="1" style="stop-color:#F8924F"/>
					</linearGradient>
					<path style="fill:url(#SVGID_00000085242235082073780340000007274871990490976659_);" d="M2877.283,1150.82
						c0,305.894-239.557,545.829-544.905,535.576c-316.787-10.636-582.44-284.613-582.44-611.579s265.653-565.124,582.44-533.046
						C2637.726,572.69,2877.283,844.925,2877.283,1150.82z"/>
					<g>
						
							<linearGradient id="SVGID_00000127755540249853947110000013516305408159770015_" gradientUnits="userSpaceOnUse" x1="2190.5176" y1="663.8501" x2="2445.1304" y2="1618.0946">
							<stop  offset="0" style="stop-color:#FFDB44"/>
							<stop  offset="1" style="stop-color:#FEEF06"/>
						</linearGradient>
						<path style="fill:url(#SVGID_00000127755540249853947110000013516305408159770015_);" d="M2329.252,645.836L2329.252,645.836
							c16.25,1.546,29.401,16.174,29.401,32.675v56.32c32.49,3.628,65.027,9.276,97.611,16.933
							c24.024,5.646,47.888,12.368,71.59,20.16c14.202,4.669,23.88,19.009,22.431,33.797l-6.917,70.625
							c-1.835,18.737-20.357,29.741-37.794,21.965c-15.613-6.961-31.62-12.925-48.026-17.89
							c-28.627-8.663-58.818-14.311-90.587-16.928l-8.307-0.684v161.294c84.764,23.714,147.014,55.619,187.244,95.747
							c40.036,39.935,59.983,89.706,59.983,149.458c0,64.615-22.053,116.356-66.335,155.377
							c-44.518,39.23-106.934,61.295-187.647,66.071v62.162c0,16.509-13.161,29.368-29.424,28.721l-0.522-0.02
							c-16.295-0.648-29.529-14.604-29.529-31.171v-61.32l-13.099-0.591c-37.838-1.708-74.081-5.567-108.709-11.591
							c-25.645-4.46-50.688-10.218-75.124-17.277c-14.778-4.269-24.922-18.347-23.566-33.471l8.138-90.785
							c1.759-19.625,21.473-31.046,40.135-23.685c21.753,8.581,43.777,15.809,66.07,21.688
							c34.741,9.162,69.954,15.037,105.632,17.648l0.523-179.419c-81.364-20.132-142.28-49.952-182.301-89.451
							c-40.209-39.684-60.384-90.471-60.384-152.22c0-63.903,21.877-113.23,65.464-147.849
							c43.367-34.443,105.015-51.578,184.548-51.536v-57.578C2299.748,656.455,2312.971,644.289,2329.252,645.836z
							 M2299.748,861.139c-25.145,1.83-44.755,8.736-58.789,20.727c-14.058,12.012-21.096,28.155-21.096,48.416
							c0,19.195,6.51,35.238,19.515,48.117c12.985,12.859,33.125,23.127,60.37,30.798V861.139z M2351.897,1186.027v164.532
							c27.336,0.053,48.297-6.473,62.929-19.561c14.608-13.066,21.902-31.522,21.902-55.385c0-21.757-6.779-39.801-20.353-54.151
							C2402.778,1207.09,2381.305,1195.28,2351.897,1186.027z"/>
					</g>
					
						<linearGradient id="SVGID_00000060735207384377812080000013353080796281141429_" gradientUnits="userSpaceOnUse" x1="2061.7229" y1="964.7159" x2="2567.0566" y2="2037.4434">
						<stop  offset="0" style="stop-color:#FCB148"/>
						<stop  offset="0.0521" style="stop-color:#FDBA46"/>
						<stop  offset="0.1424" style="stop-color:#FFC244"/>
						<stop  offset="0.3183" style="stop-color:#FFC444"/>
						<stop  offset="0.4849" style="stop-color:#FDB946"/>
						<stop  offset="0.7754" style="stop-color:#F99C4D"/>
						<stop  offset="0.8658" style="stop-color:#F8924F"/>
						<stop  offset="1" style="stop-color:#F8924F"/>
					</linearGradient>
					<path style="opacity:0.3;fill:url(#SVGID_00000060735207384377812080000013353080796281141429_);" d="M2233.771,1225.728
						c18.411-181.833,185.523-258.809,163.715-426.067c-13.441-103.088-91.576-189.965-178.738-257.798
						c-264.375,27.725-468.81,246.636-468.81,532.956c0,326.966,265.653,600.943,582.44,611.579
						c30.758,1.032,60.798-0.567,90.008-4.395C2296.576,1556.812,2217.955,1381.946,2233.771,1225.728z"/>
				</g>
				<g>
					
						<linearGradient id="SVGID_00000033358733545888390520000016068672086791403401_" gradientUnits="userSpaceOnUse" x1="1753.974" y1="1122.399" x2="1822.8844" y2="1122.399">
						<stop  offset="0" style="stop-color:#311944"/>
						<stop  offset="1" style="stop-color:#893976"/>
					</linearGradient>
					<path style="fill:url(#SVGID_00000033358733545888390520000016068672086791403401_);" d="M1753.974,1162.901
						c0,0,16.403-2.285,11.289-33.611c-4.008-24.555-0.972-32.813,4.824-28.46c5.796,4.353,6.615,18.543,6.615,18.543
						s21.143-18.033,29.848-41.663c8.706-23.63,14.303-3.731,16.168,8.084c1.865,11.815-12.437,48.504-20.521,55.344
						c-8.084,6.841-19.899,36.988-19.899,36.988L1753.974,1162.901z"/>
					
						<linearGradient id="SVGID_00000083769861226283733710000013213082806451829933_" gradientUnits="userSpaceOnUse" x1="1676.1785" y1="1414.6517" x2="1717.6735" y2="1414.6517">
						<stop  offset="0" style="stop-color:#311944"/>
						<stop  offset="1" style="stop-color:#893976"/>
					</linearGradient>
					<polygon style="fill:url(#SVGID_00000083769861226283733710000013213082806451829933_);" points="1697.735,1463.474 
						1676.178,1422.209 1676.178,1365.829 1717.673,1463.474 					"/>
					
						<linearGradient id="SVGID_00000126283123454929138190000009067100694992922538_" gradientUnits="userSpaceOnUse" x1="306.3008" y1="2909.0505" x2="333.303" y2="3252.7144" gradientTransform="matrix(-1 0 0 1 1460.9358 0)">
						<stop  offset="0" style="stop-color:#311944"/>
						<stop  offset="1" style="stop-color:#A03976"/>
					</linearGradient>
					<path style="fill:url(#SVGID_00000126283123454929138190000009067100694992922538_);" d="M1101.973,3080.443
						c0,0,108.696,49.402,110.47,57.287c1.776,7.886-69.901-2.643-99.163-1.507c-29.261,1.138-53.331-7.51-50.684-19.903
						c2.65-12.395,12.892-43.567,12.892-43.567L1101.973,3080.443z"/>
					
						<linearGradient id="SVGID_00000156547373625502124110000017688332212618378653_" gradientUnits="userSpaceOnUse" x1="376.0103" y1="3100.3801" x2="371.1011" y2="2744.4456" gradientTransform="matrix(-1 0 0 1 1460.9358 0)">
						<stop  offset="0" style="stop-color:#FFC444"/>
						<stop  offset="0.9964" style="stop-color:#F36F56"/>
					</linearGradient>
					<path style="fill:url(#SVGID_00000156547373625502124110000017688332212618378653_);" d="M1105.949,3040.351l-6.611,48.939
						c0,0-17.208,6.125-28.768-1.117l-4.932-53.675L1105.949,3040.351z"/>
					
						<linearGradient id="SVGID_00000024684346053755667300000017655894820216038283_" gradientUnits="userSpaceOnUse" x1="816.5826" y1="2868.9595" x2="843.5847" y2="3212.6199" gradientTransform="matrix(-1 0 0 1 1460.9358 0)">
						<stop  offset="0" style="stop-color:#311944"/>
						<stop  offset="1" style="stop-color:#A03976"/>
					</linearGradient>
					<path style="fill:url(#SVGID_00000024684346053755667300000017655894820216038283_);" d="M594.063,3041.525l-12.643,20.296
						c-3.537,5.676-4.59,12.51-2.895,18.979c4.421,16.878,13.251,49.77,17.102,58.347c5.243,11.683,75.584,18.623,75.584,18.623
						s6.272-8.826-8.332-19.488c-14.603-10.66-23.99-12.337-29.146-28.071c-5.153-15.731-8.593-60.232-8.593-60.232
						L594.063,3041.525z"/>
					
						<linearGradient id="SVGID_00000145023084863420017360000004461377270313666699_" gradientUnits="userSpaceOnUse" x1="843.6608" y1="3093.9309" x2="838.7515" y2="2737.9866" gradientTransform="matrix(-1 0 0 1 1460.9358 0)">
						<stop  offset="0" style="stop-color:#FFC444"/>
						<stop  offset="0.9964" style="stop-color:#F36F56"/>
					</linearGradient>
					<path style="fill:url(#SVGID_00000145023084863420017360000004461377270313666699_);" d="M646.688,2989.947
						c-4.618,3.681-27.21,72.253-27.21,72.253s-7.313,9.351-21.204-4.449c-13.89-13.801-6.286-6.191-6.286-6.191l2.605-67.442
						L646.688,2989.947z"/>
					
						<linearGradient id="SVGID_00000168107629496788363380000005978880435444108459_" gradientUnits="userSpaceOnUse" x1="291.0652" y1="2523.7725" x2="554.2353" y2="2523.7725" gradientTransform="matrix(-1 0 0 1 1460.9358 0)">
						<stop  offset="0" style="stop-color:#444B8C"/>
						<stop  offset="0.9964" style="stop-color:#3E4177"/>
					</linearGradient>
					<path style="fill:url(#SVGID_00000168107629496788363380000005978880435444108459_);" d="M1165.754,2057.141
						c5.734,145.983,5.968,304.587-2.432,474.024c-9.456,190.799-28.462,367.146-52.413,527.004
						c-8.904,0.284-18.26,0.331-28.034,0.056c-6.599-0.183-12.995-0.505-19.175-0.931c-12.428-33.147-27.121-76.738-40.277-128.804
						c-13.83-54.749-22.175-103.858-28.12-150.818c-20.931-165.346,3.599-179.772-13.388-302.31
						c-15.044-108.524-36.439-112.762-61.555-266.844c-27.251-167.184-6.965-192.266,2.901-201.325
						C965.259,1968.621,1063.907,1994.881,1165.754,2057.141z"/>
					
						<linearGradient id="SVGID_00000139257596449607735090000017680992558536675461_" gradientUnits="userSpaceOnUse" x1="291.0641" y1="2523.7837" x2="554.2333" y2="2523.7837" gradientTransform="matrix(-1 0 0 1 1460.9358 0)">
						<stop  offset="0" style="stop-color:#444B8C"/>
						<stop  offset="0.9964" style="stop-color:#3E4177"/>
					</linearGradient>
					<path style="opacity:0.3;fill:url(#SVGID_00000139257596449607735090000017680992558536675461_);" d="M923.262,2007.195
						c40.056-36.792,131.66-14.519,228.412,41.633c-111.305,120.253-123.438,198.265-110.095,248.881
						c15.08,57.208,60.928,73.685,60.754,136.238c-0.215,76.873-69.594,97.237-68.119,178.582
						c0.975,53.789,31.462,53.231,38.662,119.668c8.518,78.608-31.31,105.695-18.41,163.856c5.55,25.02,21.39,57.716,66.504,91.396
						c-3.253,23.883-6.588,47.526-10.064,70.723c-8.901,0.281-18.258,0.33-28.031,0.053c-6.599-0.182-12.996-0.503-19.174-0.93
						c-12.429-33.147-27.122-76.736-40.277-128.802c-13.83-54.75-22.175-103.858-28.12-150.82
						c-20.93-165.346,3.599-179.772-13.388-302.31c-15.044-108.524-36.439-112.765-61.554-266.845
						C893.112,2041.333,913.396,2016.253,923.262,2007.195z"/>
					
						<linearGradient id="SVGID_00000050661107555847837070000010861733688464494264_" gradientUnits="userSpaceOnUse" x1="364.1258" y1="2497.8313" x2="893.9152" y2="2497.8313" gradientTransform="matrix(-1 0 0 1 1460.9358 0)">
						<stop  offset="0" style="stop-color:#444B8C"/>
						<stop  offset="0.9964" style="stop-color:#3E4177"/>
					</linearGradient>
					<path style="fill:url(#SVGID_00000050661107555847837070000010861733688464494264_);" d="M1096.81,2054.69
						c-95.837,140.229-199.208,314.752-291.652,523.647C735.297,2736.2,684.63,2884.419,647.43,3016.514
						c-5.034,2.331-16.909,6.98-32.082,4.975c-20.696-2.737-33.1-15.948-36.343-19.635c-15.14-94.696-13.472-174.894-8.333-232.775
						c3.29-37.059,9.114-98.773,32.735-174.96c26.458-85.341,44.648-90.137,79.166-180.425
						c35.827-93.714,27.149-117.101,61.459-234.379c14.094-48.177,37.689-119.874,76.621-205.633
						C912.705,2000.684,1004.758,2027.688,1096.81,2054.69z"/>
					
						<linearGradient id="SVGID_00000096754482315652808160000008018488359345572238_" gradientUnits="userSpaceOnUse" x1="1128.6556" y1="1316.7198" x2="1158.5039" y2="1550.5319">
						<stop  offset="0" style="stop-color:#311944"/>
						<stop  offset="1" style="stop-color:#893976"/>
					</linearGradient>
					<path style="fill:url(#SVGID_00000096754482315652808160000008018488359345572238_);" d="M1132.694,1261.731
						c0,0-3.13,41.058-16.846,71.453c-12.398,27.47-73.603,43.082-86.093,48.913c-12.49,5.829,22.284,25.081,57.659,29.749
						c35.372,4.668,136.96-0.249,155.644-13.135c18.684-12.885-14.294-12.895-39.333-22.977
						c-25.04-10.082-38.149-60.072-32.982-82.415C1175.909,1270.973,1132.694,1261.731,1132.694,1261.731z"/>
					<g>
						
							<linearGradient id="SVGID_00000029008198369175085320000016818254195523020201_" gradientUnits="userSpaceOnUse" x1="1145.5648" y1="1271.0994" x2="1132.2991" y2="1111.9084">
							<stop  offset="0.0036" style="stop-color:#26264F"/>
							<stop  offset="1" style="stop-color:#444B8C"/>
						</linearGradient>
						<path style="fill:url(#SVGID_00000029008198369175085320000016818254195523020201_);" d="M1183.757,1230.352
							c18.639-24.733,10.696-73.281-5.931-79.514c-4.752-1.782-7.967,0.733-55.376,39.539c-23.542,19.274-34.986,29.191-35.61,42.46
							c-0.383,8.099,3.131,17.775,8.504,24.58c2.766,3.502,7.275,7.526,16.812,14.915c8.463,6.555,7.981,6.395,10.533,8.27
							c6.131,4.508,17.509,11.765,36.269,18.427c-0.501-4.542-0.834-10.265-0.418-16.754c0.16-2.496,0.89-12.288,4.081-21.346
							C1168.109,1245.341,1177.708,1238.379,1183.757,1230.352z"/>
						
							<linearGradient id="SVGID_00000179619747108788590200000003003251143203499916_" gradientUnits="userSpaceOnUse" x1="1063.0575" y1="1167.6865" x2="1185.7676" y2="1297.0294">
							<stop  offset="0" style="stop-color:#311944"/>
							<stop  offset="1" style="stop-color:#893976"/>
						</linearGradient>
						<path style="fill:url(#SVGID_00000179619747108788590200000003003251143203499916_);" d="M1136.036,1293.892
							c0,0,23.09,18.486,51.221,6.154c25.188-11.045,7.967-70.267-12.967-76.563c-6.983-2.101-18.61,0.196-26.652,5.954
							c-4.751,3.401-5.741,6.248-13.61,11.655c-7.258,4.985-9.844,4.918-11.523,7.833c-2.101,3.643-2.05,10.689,9.14,25.77
							c-6.73-3.198-13.333-2.966-16.801,0.529c-0.553,0.557-1.887,2.406-2.22,4.593
							C1111.417,1287.736,1120.512,1293.983,1136.036,1293.892z"/>
					</g>
					
						<linearGradient id="SVGID_00000052073821870135333520000004402710658639845010_" gradientUnits="userSpaceOnUse" x1="1112.3729" y1="1757.9991" x2="1828.7344" y2="1220.7281">
						<stop  offset="0.0036" style="stop-color:#6165D7"/>
						<stop  offset="1" style="stop-color:#AA80F9"/>
					</linearGradient>
					<path style="fill:url(#SVGID_00000052073821870135333520000004402710658639845010_);" d="M1206.388,1420.14
						c91.614-32.934,159.645,115.361,298.286,94.682c92.325-13.77,156.936-93.668,202.243-63.637
						c14.746,9.775,20.749,26.751,23.519,38.748c-17.486,43.189-64.686,142.105-170.334,200.911
						c-154.732,86.127-389.313,60.874-437.776-52.235C1090.556,1564.462,1135.754,1445.531,1206.388,1420.14z"/>
					
						<linearGradient id="SVGID_00000034052131715036787190000002580041344647592873_" gradientUnits="userSpaceOnUse" x1="1319.5582" y1="2410.0107" x2="1207.8855" y2="1335.9764">
						<stop  offset="0.0036" style="stop-color:#6165D7"/>
						<stop  offset="1" style="stop-color:#AA80F9"/>
					</linearGradient>
					<path style="fill:url(#SVGID_00000034052131715036787190000002580041344647592873_);" d="M706.935,2106.234
						c39.988,36.213,109.246,39.157,124.368,39.798c71.166,3.022,81.33-27.876,151.729-24.874
						c70.616,3.012,89.233,35.265,139.292,22.387c8.871-2.284,43.518-12.359,80.338-60.474
						c104.349-136.358,17.124-286.394,121.138-479.284c15.679-29.076,29.47-54.651,57.209-82.083
						c89.768-88.773,175.362-48.399,288.479-119.636c92.804-58.443,155.091-175.919,128.154-228.878
						c-12.207-24.001-22.78-20.831-39.176-22.76c-27.545,46.711-95.72,103.681-174.142,136.85
						c-74.409,31.471-131.747,16.428-245.6,18.024c-69.587,0.974-189.045,2.647-283.77,36.559
						c-236.879,84.801-324.578,373.163-350.508,458.426C681.782,1874.817,632.15,2038.509,706.935,2106.234z"/>
					
						<linearGradient id="SVGID_00000024721428126951970050000005906330787158082202_" gradientUnits="userSpaceOnUse" x1="977.7898" y1="2448.3293" x2="865.03" y2="1363.8392">
						<stop  offset="0" style="stop-color:#AA80F9"/>
						<stop  offset="0.9964" style="stop-color:#6165D7"/>
					</linearGradient>
					<path style="opacity:0.3;fill:url(#SVGID_00000024721428126951970050000005906330787158082202_);" d="M900.95,2040.735
						c-25.827-33.315,107.429-125.092,89.545-232.156c-15.059-90.153-121.916-99.155-149.242-182.406
						c-11.804-35.965-9.587-88.34,40.655-166.277c-110.168,119.483-159.19,280.319-177.461,340.392
						c-22.665,74.529-72.298,238.221,2.488,305.946c39.989,36.213,109.246,39.157,124.368,39.798
						c71.166,3.022,81.33-27.876,151.729-24.874c70.617,3.012,89.233,35.265,139.292,22.387
						c8.872-2.284,43.518-12.359,80.338-60.474c0.549-0.717,1.015-1.441,1.553-2.159c-27.796-26.494-61.151-47.863-100.961-56.76
						C1005.198,2002.234,921.869,2067.719,900.95,2040.735z"/>
				</g>
			</g>
		</g>
	</g>
</g>
</svg>
